# xmcd CD database file
#
# Track frame offsets:
#	150
#	14809
#	29887
#	45585
#	65292
#	79560
#	96837
#	114142
#	126965
#	147467
#	161105
#
# Disc length: 2295 seconds
#
# Revision: 0
# Processed by: cddbd v1.5.2PL0 Copyright (c) Steve Scherf et al.
# Submitted via: CDex 1.79
#
DISCID=9708f50b
DTITLE=Steven Anthony - She Makes Me
DYEAR=2001
DGENRE=Country
TTITLE0=That Sound
TTITLE1=She Makes Me
TTITLE2=Rodeo Cowboy
TTITLE3=Old Straw Hat
TTITLE4=Country Fair
TTITLE5=Wednesday Evening
TTITLE6=Another Time And Place
TTITLE7=Our Wedding Day
TTITLE8=To Forever Waltz
TTITLE9=Down At Uncle Bills
TTITLE10=This Chair Of Mine
EXTD=YEAR: 2001
EXTT0=
EXTT1=
EXTT2=
EXTT3=
EXTT4=
EXTT5=
EXTT6=
EXTT7=
EXTT8=
EXTT9=
EXTT10=
PLAYORDER=
